PathFileType	4	(X/Y/Z)	/Users/itak/Documents/Research/Walk-IL/dataset/trc/00431_00167.trc
DataRate	CameraRate	NumFrames	NumMarkers	Units	OrigDataRate	OrigDataStartFrame	OrigNumFrames
100.000000	100.000000	4	54	mm	100.000000	420	673
Frame#	Time	RPSI			LPSI			L3			STRN			T10			C7			CLAV			RBAK			LBAK			LSHO			LUPA			LAEL			LAOL			LWTS			LWPS			LFRA			LIFD			LHPS			LHTS			RSHO			RUPA			RAEL			RAOL			RWTS			RWPS			RFRA			RIFD			RHTS			RHPS			RBHD			LFHD			RFHD			LBHD			LHIP			RHIP			RASI			LASI			LKNE			LTHI			LANK			LTIP			LTOE			LMT1			LMT5			LHEE			RKNE			RTHI			RANK			RTIP			RTOE			RMT1			RMT5			RHEE			*53			
		X1	Y1	Z1	X2	Y2	Z2	X3	Y3	Z3	X4	Y4	Z4	X5	Y5	Z5	X6	Y6	Z6	X7	Y7	Z7	X8	Y8	Z8	X9	Y9	Z9	X10	Y10	Z10	X11	Y11	Z11	X12	Y12	Z12	X13	Y13	Z13	X14	Y14	Z14	X15	Y15	Z15	X16	Y16	Z16	X17	Y17	Z17	X18	Y18	Z18	X19	Y19	Z19	X20	Y20	Z20	X21	Y21	Z21	X22	Y22	Z22	X23	Y23	Z23	X24	Y24	Z24	X25	Y25	Z25	X26	Y26	Z26	X27	Y27	Z27	X28	Y28	Z28	X29	Y29	Z29	X30	Y30	Z30	X31	Y31	Z31	X32	Y32	Z32	X33	Y33	Z33	X34	Y34	Z34	X35	Y35	Z35	X36	Y36	Z36	X37	Y37	Z37	X38	Y38	Z38	X39	Y39	Z39	X40	Y40	Z40	X41	Y41	Z41	X42	Y42	Z42	X43	Y43	Z43	X44	Y44	Z44	X45	Y45	Z45	X46	Y46	Z46	X47	Y47	Z47	X48	Y48	Z48	X49	Y49	Z49	X50	Y50	Z50	X51	Y51	Z51	X52	Y52	Z52	X53	Y53	Z53	X54	Y54	Z54	

421	4.2	354.2399597167969	958.4735107421875	581.4968872070312	427.1765747070312	962.7425537109375	459.7296142578125	399.0072937011719	1052.310913085938	544.8209228515625	634.2996826171875	1226.275146484375	696.0475463867188	387.4627380371094	1174.295776367188	539.7860717773438	438.3909301757812	1436.203125	602.2434692382812	604.4564208984375	1341.889892578125	684.0421142578125	335.4395446777344	1312.955078125	640.9559326171875	465.6565551757812	1398.310302734375	498.9302368164062	596.1600341796875	1417.156372070312	490.6028442382812	639.9918823242188	1306.249267578125	392.8838806152344	675.44775390625	1092.92919921875	360.2705383300781	573.9179077148438	1076.6005859375	367.3695983886719	723.1495971679688	889.8659057617188	439.9211730957031	719.4367065429688	875.1763916015625	367.2945556640625	701.0454711914062	1006.208862304688	362.4456787109375	720.9672241210938	719.2518310546875	437.8644409179688	720.909912109375	793.011474609375	372.1973571777344	737.4290771484375	797.8525390625	440.8919067382812	413.9065856933594	1393.643310546875	772.7166137695312	356.0104675292969	1332.069458007812	824.554443359375	313.0458374023438	1047.416137695312	863.4015502929688	291.2820739746094	1027.829223632812	801.6287841796875	441.2966003417969	859.8480224609375	889.7451782226562	357.7639465332031	836.6466064453125	902.7538452148438	315.9439392089844	989.2528076171875	875.0902099609375	454.5511779785156	701.8538818359375	904.0516967773438	456.7789916992188	761.911865234375	913.5093383789062	382.2984008789062	753.2284545898438	914.34619140625	456.4078979492188	1625.736572265625	721.6287231445312	648.8319702148438	1652.983276367188	651.3228149414062	585.5482788085938	1651.221801757812	765.7493896484375	528.7959594726562	1632.598022460938	558.6908569335938	585.0112915039062	843.3726806640625	412.4446411132812	390.9034423828125	848.0847778320312	764.1795654296875	510.9451599121094	887.9630126953125	751.1842651367188	641.0471801757812	872.2489013671875	531.7606811523438	493.7963256835938	429.9402160644531	379.1367797851562	560.425537109375	574.3017578125	403.8836059570312	226.7328491210938	131.4108123779297	210.0942840576172	412.892578125	307.6357421875	313.3682250976562	272.3409118652344	35.67306518554688	396.0038146972656	228.8729400634766	69.95236206054688	371.8611755371094	295.5999755859375	39.4496955871582	289.2886352539062	182.0499572753906	188.7338714599609	216.648681640625	497.1323547363281	456.8398742675781	760.1644897460938	443.836669921875	715.7661743164062	795.107421875	537.376953125	39.37315368652344	748.8128051757812	519.1889038085938	311.3406372070312	773.5440673828125	750.4375	42.6979866027832	805.3992919921875	708.3421630859375	45.31746292114258	745.0950927734375	643.5260620117188	47.17383575439453	829.2238159179688	498.8632202148438	29.93941879272461	678.3997802734375	nan	nan	nan	
422	4.21	359.1670227050781	959.6449584960938	586.5206298828125	431.7785339355469	963.1165161132812	464.4179382324219	403.9927368164062	1053.186645507812	549.9529418945312	639.1283569335938	1227.117553710938	701.13720703125	392.5668334960938	1175.077514648438	544.7554931640625	443.2912902832031	1437.08935546875	606.8180541992188	609.2728881835938	1342.728515625	689.0859985351562	340.3885498046875	1313.811767578125	645.5048217773438	470.6360778808594	1399.151000976562	503.5064697265625	601.1748046875	1417.800537109375	495.584716796875	645.6515502929688	1306.944091796875	398.2270202636719	683.0282592773438	1094.320434570312	365.6011352539062	581.6183471679688	1076.906616210938	372.071533203125	732.9268798828125	892.6031494140625	446.7523803710938	729.9857788085938	877.4099731445312	374.1824035644531	709.7363891601562	1007.991027832031	368.4065551757812	734.1022338867188	722.0733032226562	445.6921997070312	733.0060424804688	795.3902587890625	379.5755920410156	748.9754028320312	800.9998168945312	448.3684692382812	418.5589294433594	1394.872680664062	777.3031005859375	360.5382690429688	1333.401733398438	829.2337036132812	318.5233764648438	1048.895385742188	869.55078125	297.0624389648438	1028.240600585938	808.0133056640625	450.7129821777344	864.8740234375	898.6100463867188	367.6741333007812	839.8411254882812	911.7017822265625	322.6026306152344	990.9226684570312	881.8306884765625	467.9958801269531	707.6044311523438	916.2772216796875	468.5523071289062	767.7695922851562	924.4987182617188	394.3450012207031	757.2725219726562	925.03466796875	461.0988159179688	1626.656982421875	726.295166015625	653.5527954101562	1654.074462890625	656.1583862304688	590.1592407226562	1652.255249023438	770.5231323242188	533.596435546875	1633.511474609375	563.4513549804688	589.677734375	843.6241455078125	417.4660339355469	395.8355407714844	848.9992065429688	769.029541015625	515.8790283203125	888.496337890625	755.9033203125	645.8978271484375	873.1174926757812	536.52099609375	504.216796875	429.1802062988281	384.3479309082031	569.2107543945312	574.1734008789062	408.9946594238281	232.0846557617188	136.8424072265625	213.18505859375	421.3937072753906	308.4485473632812	317.7434692382812	274.2786254882812	34.79509735107422	397.1923217773438	232.3097534179688	72.35832977294922	373.8582153320312	297.7662048339844	40.52881622314453	290.7930908203125	189.11376953125	195.1577606201172	220.9638519287109	498.93310546875	456.9201354980469	762.6154174804688	448.1089782714844	716.3064575195312	799.094970703125	537.3714599609375	39.31760787963867	748.8866577148438	520.2460327148438	311.1890869140625	775.1607666015625	750.4470825195312	42.62378311157227	805.3619384765625	708.3495483398438	45.31938934326172	745.1378784179688	643.5580444335938	47.0198860168457	829.3896484375	498.7872619628906	29.96103477478027	678.4744262695312	nan	nan	nan	
423	4.22	363.9513854980469	960.6641235351562	591.4703979492188	436.1458129882812	963.3353271484375	469.0106811523438	408.763671875	1053.97119140625	555.0069580078125	643.86279296875	1227.900756835938	705.9926147460938	397.4939880371094	1175.805541992188	549.6607666015625	448.0406494140625	1437.92138671875	611.2799682617188	613.9971313476562	1343.5107421875	693.926513671875	345.2218627929688	1314.627807617188	649.9985961914062	475.454345703125	1399.925170898438	507.9405212402344	606.0213012695312	1418.387451171875	500.3729553222656	651.141845703125	1307.562377929688	403.392822265625	690.3773193359375	1095.645385742188	370.8204650878906	589.1455078125	1077.098999023438	376.8051452636719	742.7033081054688	895.3952026367188	453.4237976074219	740.3541259765625	879.6718139648438	380.9376525878906	718.225341796875	1009.741149902344	374.2397766113281	747.5029296875	725.0348510742188	453.4132995605469	745.0577392578125	797.8651123046875	386.8468017578125	760.6568603515625	804.2847900390625	455.6560363769531	423.1842346191406	1396.074951171875	781.7861938476562	365.0728454589844	1334.705444335938	833.838134765625	323.9598999023438	1050.385864257812	875.6044921875	302.8331298828125	1028.686889648438	814.3011474609375	459.857666015625	869.9207763671875	907.3041381835938	377.3780212402344	843.09912109375	920.4119262695312	329.1772155761719	992.6273193359375	888.4976196289062	481.0256958007812	713.518310546875	928.297119140625	479.9454345703125	773.7430419921875	935.2512817382812	406.0593566894531	761.4566040039062	935.57275390625	465.7272338867188	1627.525634765625	730.7908935546875	658.219970703125	1655.078979492188	660.8140258789062	594.7212524414062	1653.207275390625	775.1165771484375	538.3389892578125	1634.371704101562	568.0274047851562	594.2157592773438	843.8028564453125	422.4025268554688	400.6706848144531	849.7962036132812	773.7774047851562	520.7289428710938	888.9354858398438	760.5210571289062	650.6511840820312	873.9418334960938	541.1483764648438	515.0103759765625	428.2878112792969	389.8949584960938	578.248291015625	573.9483032226562	414.3104248046875	237.740478515625	142.5625457763672	216.6674652099609	430.2020874023438	309.1688232421875	322.531494140625	276.5808410644531	33.85903167724609	398.501220703125	236.2259521484375	74.96775817871094	376.2056274414062	300.1798400878906	41.94741821289062	292.4677124023438	196.4491119384766	201.7528076171875	225.7386474609375	500.7102966308594	456.9557189941406	764.9779052734375	452.2315979003906	716.732666015625	802.9774780273438	537.3668212890625	39.26789093017578	748.9502563476562	521.2752075195312	311.0205078125	776.7046508789062	750.4562377929688	42.55177688598633	805.3289794921875	708.3561401367188	45.31975936889648	745.1726684570312	643.5938110351562	46.87742614746094	829.5419921875	498.7353210449219	29.97760200500488	678.5338745117188	nan	nan	nan	
424	4.23	368.5948791503906	961.5494384765625	596.3328247070312	440.3076477050781	963.4317626953125	473.5085754394531	413.3317260742188	1054.681518554688	559.9771118164062	648.5038452148438	1228.642700195312	710.6080322265625	402.2242431640625	1176.497192382812	554.4990844726562	452.6448059082031	1438.707763671875	615.6295166015625	618.6318969726562	1344.255493164062	698.5521850585938	349.9195556640625	1315.421020507812	654.4564208984375	480.1099853515625	1400.6376953125	512.2269287109375	610.6950073242188	1418.937622070312	504.9588012695312	656.4508056640625	1308.128662109375	408.3654479980469	697.472900390625	1096.920654296875	375.9164733886719	596.4734497070312	1077.199096679688	381.5646362304688	752.441650390625	898.26025390625	459.9286499023438	750.5108642578125	881.969970703125	387.5506896972656	726.48388671875	1011.472290039062	379.9311828613281	761.0691528320312	728.1641235351562	461.0401611328125	757.0113525390625	800.4454345703125	394.0066528320312	772.40966796875	807.7244262695312	462.7592468261719	427.7875061035156	1397.256225585938	786.1673583984375	369.6293334960938	1335.98876953125	838.373291015625	329.3694458007812	1051.893676757812	881.575439453125	308.5951843261719	1029.179321289062	820.5050048828125	468.7279663085938	874.950439453125	915.8026733398438	386.8673400878906	846.3858642578125	928.8688354492188	335.6708984375	994.3696899414062	895.0958862304688	493.6064147949219	719.5389404296875	940.0328979492188	490.9415893554688	779.8056030273438	945.722412109375	417.4049377441406	765.7332763671875	945.894287109375	470.2970581054688	1628.353393554688	735.12060546875	662.8336181640625	1656.00439453125	665.2877197265625	599.2407836914062	1654.08544921875	779.531982421875	543.0293579101562	1635.193359375	572.4107666015625	598.6755981445312	843.9329833984375	427.2635192871094	405.3870239257812	850.4746704101562	778.3928833007812	525.4692993164062	889.2999877929688	765.0453491210938	655.3390502929688	874.7464599609375	545.6703491210938	526.1250610351562	427.3290405273438	395.7727966308594	587.5258178710938	573.6717529296875	419.8479919433594	243.7155456542969	148.5204315185547	220.5709686279297	439.29638671875	309.8479919433594	327.7138366699219	279.4396362304688	32.90527725219727	399.9442749023438	240.741943359375	77.74491882324219	378.9419250488281	302.9105224609375	43.70999908447266	294.3218078613281	204.047607421875	208.4617767333984	231.0097961425781	502.4758605957031	456.9576721191406	767.2601928710938	456.2018127441406	717.05126953125	806.7407836914062	537.3643188476562	39.22778701782227	749.0018310546875	522.3019409179688	310.8428344726562	778.1777954101562	750.4647216796875	42.48533248901367	805.295166015625	708.3587036132812	45.31484222412109	745.1981201171875	643.6315307617188	46.75551223754883	829.6721801757812	498.70068359375	29.99117088317871	678.5805053710938	nan	nan	nan	
